<?xml version="1.0" encoding="UTF-8"?>
<svg width="184px" height="104px" viewBox="0 0 184 104" version="1.1" xmlns="http://www.w3.org/2000/svg" xmlns:xlink="http://www.w3.org/1999/xlink">
    <!-- Generator: Sketch 64 (93537) - https://sketch.com -->
    <title>Combined Shape</title>
    <desc>Created with Sketch.</desc>
    <g id="Page-1" stroke="none" stroke-width="1" fill="none" fill-rule="evenodd">
        <g id="Custom-Preset-4" transform="translate(-158.000000, -195.000000)" fill="#FFFFFF">
            <path d="M177.556028,198.802522 L177.562238,198.808733 L249.812778,271.129772 L321.984854,198.889389 C321.985828,198.888415 321.986802,198.88744 321.987776,198.886466 C326.466668,194.409691 333.721932,194.411407 338.195785,198.887376 C342.673812,203.367522 342.674713,210.628748 338.197799,215.110005 L338.197799,215.110005 L258.17811,295.207321 L258.17811,295.207321 C255.469192,297.914962 251.752495,298.984496 248.246912,298.422057 C245.737566,298.152676 243.299745,297.056519 241.375558,295.133243 L241.369714,295.127398 L161.350025,215.030081 C156.873052,210.548765 156.873789,203.287493 161.351673,198.807087 C165.825122,194.331117 173.080059,194.329074 177.556028,198.802522 Z" id="Combined-Shape"></path>
        </g>
    </g>
</svg>